HIERARCHY
ROOT Hips
{
	OFFSET 0.000000 0.000000 0.000000
	CHANNELS 6 Xposition Yposition Zposition Xrotation Yrotation Zrotation
	JOINT Spine1
	{
		OFFSET 0.000000 0.000002 -3.124066
		CHANNELS 6 Xposition Yposition Zposition Xrotation Yrotation Zrotation
		JOINT Neck
		{
			OFFSET 0.000000 0.000002 -2.490615
			CHANNELS 6 Xposition Yposition Zposition Xrotation Yrotation Zrotation
			JOINT Head
			{
				OFFSET 0.000000 0.204341 -1.583640
				CHANNELS 6 Xposition Yposition Zposition Xrotation Yrotation Zrotation
				End Site
				{
					OFFSET 0.000000 0.000000 -2.043401
				}
			}
		}
		JOINT LeftShoulder
		{
			OFFSET 0.411488 -0.054013 -2.011039
			CHANNELS 6 Xposition Yposition Zposition Xrotation Yrotation Zrotation
			JOINT LeftArm
			{
				OFFSET 1.468305 0.000000 0.000000
				CHANNELS 6 Xposition Yposition Zposition Xrotation Yrotation Zrotation
				JOINT LeftForeArm
				{
					OFFSET 2.879112 0.000000 0.000000
					CHANNELS 6 Xposition Yposition Zposition Xrotation Yrotation Zrotation
					JOINT LeftHand
					{
						OFFSET 2.675755 0.000000 0.000000
						CHANNELS 6 Xposition Yposition Zposition Xrotation Yrotation Zrotation
						End Site
						{
							OFFSET 1.532550 0.000000 0.000000
						}
					}
				}
			}
		}
		JOINT RightShoulder
		{
			OFFSET -0.405812 -0.054013 -2.011039
			CHANNELS 6 Xposition Yposition Zposition Xrotation Yrotation Zrotation
			JOINT RightArm
			{
				OFFSET -1.468305 0.000000 0.000000
				CHANNELS 6 Xposition Yposition Zposition Xrotation Yrotation Zrotation
				JOINT RightForeArm
				{
					OFFSET -2.879111 0.000000 0.000000
					CHANNELS 6 Xposition Yposition Zposition Xrotation Yrotation Zrotation
					JOINT RightHand
					{
						OFFSET -2.675757 0.000000 0.000000
						CHANNELS 6 Xposition Yposition Zposition Xrotation Yrotation Zrotation
						End Site
						{
							OFFSET -1.532550 0.000000 0.000000
						}
					}
				}
			}
		}
	}
	JOINT LeftUpLeg
	{
		OFFSET 1.021703 0.000000 0.000000
		CHANNELS 6 Xposition Yposition Zposition Xrotation Yrotation Zrotation
		JOINT LeftLeg
		{
			OFFSET 0.000000 -0.000002 4.296927
			CHANNELS 6 Xposition Yposition Zposition Xrotation Yrotation Zrotation
			JOINT LeftFoot
			{
				OFFSET 0.000000 -0.000002 4.504838
				CHANNELS 6 Xposition Yposition Zposition Xrotation Yrotation Zrotation
				JOINT LeftToeBase
				{
					OFFSET 0.000000 1.532553 0.664107
					CHANNELS 6 Xposition Yposition Zposition Xrotation Yrotation Zrotation
					End Site
					{
						OFFSET 0.000000 0.408681 0.000000
					}
				}
			}
		}
	}
	JOINT RightUpLeg
	{
		OFFSET -1.021703 0.000000 0.000000
		CHANNELS 6 Xposition Yposition Zposition Xrotation Yrotation Zrotation
		JOINT RightLeg
		{
			OFFSET 0.000000 -0.000002 4.296927
			CHANNELS 6 Xposition Yposition Zposition Xrotation Yrotation Zrotation
			JOINT RightFoot
			{
				OFFSET 0.000000 -0.000002 4.504838
				CHANNELS 6 Xposition Yposition Zposition Xrotation Yrotation Zrotation
				JOINT RightToeBase
				{
					OFFSET 0.000000 1.532553 0.664107
					CHANNELS 6 Xposition Yposition Zposition Xrotation Yrotation Zrotation
					End Site
					{
						OFFSET 0.000000 0.408681 0.000000
					}
				}
			}
		}
	}
}
MOTION
Frames: 7
Frame Time: 0.016667
1.278596 -0.176560 -8.400684 10.152170 4.625524 4.037334 -0.000000 0.000001 -3.124065 -5.296433 4.260946 -4.081570 -0.000000 0.000001 -2.490614 6.648540 -0.867593 3.864704 -0.000000 0.204341 -1.583645 17.404488 8.436219 3.852149 0.411487 -0.054013 -2.011035 -7.788011 18.311056 0.116356 1.468306 0.000000 -0.000000 14.192350 -17.590027 20.599856 2.879110 -0.000001 -0.000002 -20.980710 25.298128 48.104425 2.675758 0.000000 0.000000 -8.461315 30.639248 -3.936383 -0.405810 -0.054013 -2.011039 -6.459142 -13.286461 -2.740794 -1.468306 0.000000 0.000002 50.010734 25.737546 -70.703427 -2.879114 -0.000001 0.000001 -33.474050 7.382997 -112.512005 -2.675756 -0.000005 0.000001 -44.372874 -7.952811 1.931532 1.021703 0.000000 0.000002 -23.603706 20.096402 -20.701834 0.000000 -0.000001 4.296924 36.601389 -15.140328 -9.700495 -0.000001 -0.000002 4.504838 -8.372197 -0.740625 -18.015911 -0.000000 1.532553 0.664107 -0.000001 -0.000002 0.000008 -1.021702 0.000000 0.000002 -26.897232 -35.171175 -9.193815 0.000002 -0.000001 4.296926 19.655237 28.308108 26.290773 0.000001 -0.000002 4.504840 -2.770085 7.738480 28.260265 -0.000000 1.532553 0.664107 -0.000004 -0.000001 0.000003 
1.276896 -0.179534 -8.401254 10.099002 4.568251 3.984547 -0.000000 0.000002 -3.124064 -5.150927 4.211647 -4.266710 0.000000 0.000002 -2.490613 6.766978 -0.839180 4.267340 0.000000 0.204341 -1.583640 17.916375 9.048637 4.209014 0.411487 -0.054013 -2.011036 -7.803001 18.180787 0.226082 1.468307 0.000000 -0.000001 14.406356 -17.662873 21.049764 2.879110 0.000001 0.000001 -21.257364 25.794775 49.046639 2.675754 0.000000 -0.000004 -8.305677 31.261632 -3.656523 -0.405810 -0.054013 -2.011038 -6.453401 -13.156477 -2.858963 -1.468305 0.000000 0.000006 50.816215 24.376966 -71.532940 -2.879112 -0.000001 0.000001 -33.522855 8.156086 -112.322276 -2.675758 0.000000 0.000002 -45.598309 -8.865274 0.840938 1.021703 0.000000 0.000002 -23.600303 20.129824 -20.635830 0.000000 -0.000002 4.296924 36.604708 -15.119887 -9.669115 -0.000001 -0.000002 4.504837 -8.365889 -0.770142 -18.035227 0.000000 1.532553 0.664106 -0.000004 -0.000000 0.000009 -1.021703 0.000000 0.000002 -26.649817 -35.175208 -10.001843 0.000001 -0.000002 4.296926 18.915717 28.685685 27.187867 0.000001 -0.000002 4.504838 -2.756998 7.623142 28.440798 -0.000000 1.532552 0.664107 -0.000002 -0.000001 0.000002 
1.274897 -0.183574 -8.401866 10.064221 4.485309 3.919645 -0.000000 0.000002 -3.124067 -4.974884 4.162330 -4.407880 0.000000 0.000001 -2.490616 6.836574 -0.814937 4.662454 0.000000 0.204341 -1.583647 18.391574 9.647526 4.556704 0.411487 -0.054013 -2.011038 -7.862473 18.093735 0.297147 1.468304 0.000000 -0.000004 14.696677 -17.770658 21.490109 2.879110 -0.000000 0.000001 -21.556162 26.424619 50.015488 2.675753 -0.000001 -0.000002 -8.053357 31.639157 -3.536625 -0.405811 -0.054013 -2.011040 -6.511195 -13.061668 -3.016296 -1.468306 -0.000000 0.000001 51.653903 23.411064 -72.037766 -2.879114 -0.000001 0.000001 -32.798616 9.624560 -112.514362 -2.675758 -0.000001 0.000001 -47.036928 -7.399317 1.982187 1.021702 0.000000 0.000001 -23.636320 20.187842 -20.557532 0.000001 -0.000001 4.296924 36.625718 -15.093335 -9.575735 -0.000001 -0.000002 4.504837 -8.354030 -0.746648 -18.097139 0.000002 1.532553 0.664108 -0.000001 0.000002 0.000004 -1.021703 0.000000 0.000000 -26.544480 -35.101264 -9.898343 0.000001 -0.000001 4.296926 18.889510 28.661728 27.251408 0.000002 -0.000002 4.504838 -2.734059 7.646171 28.412564 -0.000000 1.532554 0.664107 0.000002 0.000001 0.000002 
1.273208 -0.187067 -8.401916 10.011225 4.412182 3.845161 0.000000 0.000002 -3.124065 -4.811657 4.106574 -4.568845 -0.000000 0.000001 -2.490617 6.968122 -0.815082 5.053123 -0.000000 0.204341 -1.583640 18.787861 10.317537 4.900406 0.411487 -0.054013 -2.011042 -7.881763 17.989070 0.422375 1.468305 0.000000 0.000001 14.903795 -17.908368 21.843158 2.879111 -0.000000 -0.000000 -21.976557 26.903314 51.157861 2.675753 0.000000 0.000003 -7.970721 32.107104 -3.273908 -0.405811 -0.054013 -2.011041 -6.536966 -12.949843 -3.145682 -1.468306 0.000001 0.000002 52.351392 22.298075 -72.484153 -2.879112 0.000000 -0.000001 -32.212770 10.907403 -112.561750 -2.675758 -0.000000 0.000002 -48.363818 -6.864983 2.187702 1.021703 -0.000000 0.000002 -23.663189 20.232875 -20.532278 -0.000001 -0.000001 4.296926 36.664572 -15.031288 -9.553501 -0.000001 -0.000002 4.504838 -8.343622 -0.756804 -18.047400 -0.000000 1.532553 0.664107 0.000002 0.000002 -0.000000 -1.021702 -0.000000 0.000000 -26.475867 -35.053350 -9.456810 -0.000001 -0.000001 4.296925 19.149844 28.536235 26.972683 0.000001 -0.000002 4.504838 -2.707095 7.699328 28.299422 -0.000000 1.532553 0.664107 -0.000001 -0.000000 -0.000005 
1.272112 -0.190697 -8.401905 9.980469 4.343012 3.767530 -0.000000 0.000002 -3.124064 -4.666001 4.036213 -4.713708 0.000000 0.000000 -2.490612 7.059356 -0.755784 5.455280 -0.000000 0.204340 -1.583642 19.224182 10.864548 5.248329 0.411487 -0.054014 -2.011035 -7.932309 17.882702 0.533788 1.468306 0.000000 -0.000003 15.075090 -18.072853 22.172455 2.879111 -0.000001 0.000003 -22.290116 27.447489 52.277066 2.675752 0.000001 0.000001 -7.742145 32.490817 -3.017888 -0.405811 -0.054013 -2.011035 -6.617434 -12.869625 -3.321261 -1.468307 0.000002 0.000002 53.068271 20.971191 -72.962143 -2.879112 0.000000 0.000000 -31.454233 12.374282 -112.626520 -2.675760 0.000001 0.000000 -49.806532 -7.581624 1.844708 1.021703 0.000000 0.000002 -23.702911 20.273009 -20.457521 0.000000 -0.000001 4.296926 36.684731 -15.010671 -9.487203 -0.000001 -0.000004 4.504839 -8.343472 -0.735185 -18.074550 -0.000000 1.532553 0.664107 -0.000001 0.000002 -0.000002 -1.021703 0.000000 0.000003 -26.307674 -35.040448 -9.751830 0.000001 -0.000001 4.296926 18.795627 28.712189 27.411607 0.000002 -0.000002 4.504839 -2.695015 7.665252 28.365808 -0.000000 1.532555 0.664107 -0.000002 -0.000002 0.000008 
1.270864 -0.194567 -8.401611 9.971218 4.254553 3.686679 -0.000000 0.000002 -3.124063 -4.486323 3.980677 -4.884264 0.000000 0.000002 -2.490616 7.144571 -0.620551 5.899801 -0.000000 0.204342 -1.583643 19.535565 11.346589 5.645790 0.411489 -0.054013 -2.011041 -7.967740 17.809713 0.681370 1.468304 0.000000 -0.000001 15.273917 -18.220790 22.508154 2.879110 -0.000000 -0.000001 -22.720942 28.051932 53.438000 2.675754 0.000002 0.000000 -7.517217 32.597180 -2.971647 -0.405810 -0.054013 -2.011040 -6.653698 -12.788813 -3.420232 -1.468305 0.000000 0.000002 53.862718 19.474111 -73.242775 -2.879112 0.000001 -0.000002 -31.711236 12.900292 -112.471359 -2.675758 -0.000000 0.000001 -50.788464 -5.569942 2.455917 1.021702 0.000000 0.000002 -23.780391 20.342433 -20.363094 0.000000 -0.000001 4.296924 36.727935 -15.000719 -9.451938 -0.000001 -0.000004 4.504837 -8.344406 -0.719545 -18.070789 0.000000 1.532554 0.664107 -0.000001 0.000001 0.000007 -1.021702 -0.000000 0.000000 -26.241769 -35.002824 -9.343852 0.000001 -0.000001 4.296926 18.964104 28.645233 27.126373 0.000002 -0.000002 4.504838 -2.671227 7.710234 28.337746 0.000000 1.532553 0.664107 -0.000003 0.000002 0.000004 
1.270131 -0.198016 -8.401164 9.942826 4.161916 3.604339 -0.000000 0.000002 -3.124066 -4.308017 3.920106 -5.010547 0.000000 0.000002 -2.490615 7.201037 -0.542223 6.288744 -0.000000 0.204339 -1.583638 19.907244 11.862556 5.979454 0.411487 -0.054013 -2.011039 -8.028657 17.696187 0.834744 1.468303 0.000000 0.000002 15.494122 -18.385542 22.757903 2.879112 -0.000001 -0.000001 -23.214503 28.676850 54.706202 2.675751 0.000001 0.000001 -7.302720 32.674665 -2.885417 -0.405811 -0.054013 -2.011041 -6.685054 -12.715131 -3.627107 -1.468306 0.000000 -0.000001 54.515852 18.016886 -73.437422 -2.879114 -0.000001 -0.000000 -31.404636 13.998620 -112.447126 -2.675758 0.000000 0.000001 -52.091090 -5.008768 2.660149 1.021702 0.000000 -0.000002 -23.834039 20.410851 -20.275910 -0.000000 -0.000001 4.296925 36.764770 -14.988534 -9.422103 -0.000001 -0.000002 4.504838 -8.351609 -0.691914 -18.046053 0.000000 1.532555 0.664107 0.000003 0.000001 0.000008 -1.021703 0.000000 -0.000000 -26.122745 -34.959596 -9.268280 0.000001 -0.000002 4.296926 18.899711 28.680009 27.224904 0.000001 -0.000002 4.504840 -2.622794 7.696162 28.357713 0.000000 1.532553 0.664106 0.000000 0.000001 -0.000000 
